<?xml version="1.0" encoding="utf-8"?>
<!-- Generator: Adobe Illustrator 23.0.1, SVG Export Plug-In . SVG Version: 6.00 Build 0)  -->
<svg version="1.1" id="Layer_1" xmlns="http://www.w3.org/2000/svg" xmlns:xlink="http://www.w3.org/1999/xlink" x="0px" y="0px"
	 viewBox="0 0 200 200" style="enable-background:new 0 0 200 200;" xml:space="preserve">
<style type="text/css">
	.st0{fill:#FFFFFF;}
</style>
<g>
	<path class="st0" d="M85.6,156.88c28.49,0,53.45-15.38,67.04-38.27l27.3,13.14c3.87,1.66,8.35-0.13,10.01-3.99
		c1.66-3.87-0.12-8.35-3.99-10.01l-27.76-10.55c3.42-8.76,5.32-18.28,5.32-28.23c0-3.52-2.85-6.37-6.37-6.37s-6.37,2.85-6.37,6.37
		c0,8.36-1.6,16.36-4.48,23.71l-25.52-9.7c2.1-12.36-7.6-26.32-24.03-33.38c-18.46-7.93-37.39-3.73-43.11,9.58
		c-5.72,13.3,4.26,29.94,22.72,37.87c16.43,7.06,33.23,4.5,40.76-5.53l24.01,11.56c-11.49,18.63-32.08,31.08-55.53,31.08
		c-35.95,0-65.19-29.24-65.19-65.19S49.66,13.77,85.6,13.77c18.88,0,36.82,8.18,49.21,22.44c2.31,2.65,6.33,2.93,8.98,0.63
		c2.65-2.31,2.93-6.33,0.63-8.98C129.61,10.82,108.17,1.04,85.6,1.04C42.64,1.04,7.68,36,7.68,78.96S42.64,156.88,85.6,156.88z
		 M111.97,94.24c-3.78,8.79-18.61,11.22-32.38,5.3S57.37,81.19,61.15,72.39s18.61-11.22,32.38-5.3
		C107.31,73.01,115.75,85.44,111.97,94.24z"/>
	<polygon class="st0" points="7.36,198.61 23.43,198.61 23.43,193.06 14.15,193.06 14.15,188.31 22.36,188.31 22.36,182.58 
		14.15,182.58 14.15,178.38 23.43,178.38 23.43,172.76 7.36,172.76 	"/>
	<path class="st0" d="M37.17,172.76L25.1,198.61h6.79l1.55-3.38h10.58l1.59,3.38h6.79l-12.17-25.86H37.17z M36.1,189.51l2.66-5.69
		l2.62,5.69H36.1z"/>
	<polygon class="st0" points="68.54,172.72 48.17,172.72 48.17,179.48 54.89,179.48 54.89,198.61 61.68,198.61 61.68,179.48 
		68.54,179.48 	"/>
	<path class="st0" d="M69.59,193.1c-1.55,0-2.72,1.17-2.72,2.72c0,1.55,1.17,2.79,2.72,2.79c1.55,0,2.72-1.24,2.72-2.79
		C72.31,194.27,71.14,193.1,69.59,193.1z"/>
	<path class="st0" d="M85.21,191.75c-3.52,0-6.07-2.55-6.07-6.07s2.55-6.07,6.07-6.07c1.76,0,3.28,0.62,4.34,1.69l4.76-4.79
		c-2.34-2.34-5.55-3.76-9.1-3.76c-7.14,0-12.93,5.79-12.93,12.93c0,7.14,5.79,12.93,12.93,12.93c3.58,0,6.83-1.48,9.17-3.83
		l-4.83-4.76C88.48,191.13,86.96,191.75,85.21,191.75z"/>
	<path class="st0" d="M107.97,172.76c-7.14,0-12.89,5.83-12.89,12.96c0,7.14,5.76,12.89,12.89,12.89c7.14,0,12.93-5.76,12.93-12.89
		C120.9,178.58,115.11,172.76,107.97,172.76z M107.97,191.86c-3.38,0-6.14-2.79-6.14-6.17c0-3.41,2.76-6.17,6.14-6.17
		c3.41,0,6.17,2.76,6.17,6.17C114.14,189.06,111.39,191.86,107.97,191.86z"/>
	<path class="st0" d="M130.37,172.76l-12.07,25.86h6.79l1.55-3.38h10.58l1.59,3.38h6.79l-12.17-25.86H130.37z M129.31,189.51
		l2.65-5.69l2.62,5.69H129.31z"/>
	<path class="st0" d="M156.75,191.74c-3.52,0-6.07-2.55-6.07-6.07s2.55-6.07,6.07-6.07c1.76,0,3.28,0.62,4.34,1.69l4.76-4.79
		c-2.34-2.34-5.55-3.76-9.1-3.76c-7.14,0-12.93,5.79-12.93,12.93c0,7.14,5.79,12.93,12.93,12.93c3.58,0,6.82-1.48,9.17-3.83
		l-4.83-4.76C160.02,191.12,158.5,191.74,156.75,191.74z"/>
	<polygon class="st0" points="183.37,181.96 175.16,181.96 175.16,172.76 168.37,172.76 168.37,198.61 175.16,198.61 175.16,188.75 
		183.37,188.75 183.37,198.61 190.16,198.61 190.16,172.76 183.37,172.76 	"/>
</g>
</svg>
